<?xml version="1.0" encoding="utf-8"?>
<!-- Generator: Adobe Illustrator 22.0.1, SVG Export Plug-In . SVG Version: 6.00 Build 0)  -->
<svg version="1.1" id="Camada_1" xmlns="http://www.w3.org/2000/svg" xmlns:xlink="http://www.w3.org/1999/xlink" x="0px" y="0px"
	 viewBox="0 0 1366 768" style="enable-background:new 0 0 1366 768;" xml:space="preserve">
<style type="text/css">
	.st0{fill:url(#SVGID_1_);stroke:#000000;stroke-miterlimit:10;}
	.st1{opacity:0.35;fill:#FFFFFF;enable-background:new    ;}
</style>
<image style="overflow:visible;enable-background:new    ;" width="1211" height="350" xlink:href="../../crrcl.online/Imagens/m5.jpeg"  transform="matrix(1.128 0 0 1 0 217)">
</image>
<linearGradient id="SVGID_1_" gradientUnits="userSpaceOnUse" x1="4.012704e-03" y1="378" x2="1366.004" y2="378" gradientTransform="matrix(1 0 0 -1 0 770)">
	<stop  offset="0" style="stop-color:#000000;stop-opacity:0.5"/>
	<stop  offset="1" style="stop-color:#000000;stop-opacity:0.5"/>
</linearGradient>
<rect x="0" y="217" class="st0" width="1366" height="350"/>
<rect x="270" y="545.8" transform="matrix(0.7524 -0.6587 0.6587 0.7524 -288.1114 330.043)" class="st1" width="50" height="5"/>
<rect x="345.2" y="479.9" transform="matrix(0.7524 -0.6587 0.6587 0.7524 -226.0621 363.3062)" class="st1" width="50" height="5"/>
<rect x="495" y="348.7" transform="matrix(0.7524 -0.6587 0.6587 0.7524 -102.5884 429.5087)" class="st1" width="50" height="5"/>
<rect x="420.2" y="414.3" transform="matrix(0.7524 -0.6587 0.6587 0.7524 -164.334 396.427)" class="st1" width="50" height="5"/>
<rect x="570" y="283.1" transform="matrix(0.7524 -0.6587 0.6587 0.7524 -40.8302 462.675)" class="st1" width="50" height="5"/>
<rect x="645.4" y="217.2" transform="matrix(0.7524 -0.6587 0.6587 0.7524 21.2913 495.9478)" class="st1" width="50" height="5"/>
<rect x="709.5" y="194.1" transform="matrix(0.6611 -0.7503 0.7503 0.6611 76.9211 608.4933)" class="st1" width="5" height="50"/>
<rect x="784.6" y="260.3" transform="matrix(0.6611 -0.7503 0.7503 0.6611 52.7098 687.2177)" class="st1" width="5" height="50"/>
<rect x="934" y="391.8" transform="matrix(0.6611 -0.7503 0.7503 0.6611 4.6202 843.9094)" class="st1" width="5" height="50"/>
<rect x="859.3" y="326.1" transform="matrix(0.6611 -0.7503 0.7503 0.6611 28.649 765.5605)" class="st1" width="5" height="50"/>
<rect x="1008.7" y="457.7" transform="matrix(0.6611 -0.7503 0.7503 0.6611 -19.4283 922.3145)" class="st1" width="5" height="50"/>
<rect x="1083.8" y="523.9" transform="matrix(0.6611 -0.7503 0.7503 0.6611 -43.6918 1001.1061)" class="st1" width="5" height="50"/>
</svg>
